<svg xmlns="http://www.w3.org/2000/svg" version="1.1" xmlns:xlink="http://www.w3.org/1999/xlink" xmlns:svgjs="http://svgjs.dev/svgjs" width="1000" height="1000" viewBox="0 0 1000 1000"><rect width="1000" height="1000" fill="#ffffff"></rect><g transform="matrix(0.7,0,0,0.7,149.57575757575756,282.1265587044535)"><svg viewBox="0 0 396 247" data-background-color="#fafafa" preserveAspectRatio="xMidYMid meet" height="623" width="1000" xmlns="http://www.w3.org/2000/svg" xmlns:xlink="http://www.w3.org/1999/xlink"><defs></defs><g id="tight-bounds" transform="matrix(1,0,0,1,0.2400000000000091,-0.09999999999999432)"><svg viewBox="0 0 395.52 247.2" height="247.2" width="395.52"><g><svg></svg></g><g><svg viewBox="0 0 395.52 247.2" height="247.2" width="395.52"><g><path d="M157.678 247.2c-7.063 0-13.066-2.472-18.01-7.416-1.388-1.388-2.581-2.859-3.579-4.413h123.342c-0.998 1.555-2.191 3.026-3.579 4.413-4.944 4.944-10.947 7.416-18.01 7.416zM139.668 7.416c4.944-4.944 10.947-7.416 18.01-7.416h80.164c7.063 0 13.066 2.472 18.01 7.416 1.388 1.388 2.581 2.859 3.579 4.413l-123.342 0c0.998-1.555 2.191-3.026 3.579-4.413z" fill="#130912" data-fill-palette-color="tertiary"></path></g><g transform="matrix(1,0,0,1,10.703760000000017,37.08)"><svg viewBox="0 0 374.11247999999995 173.04" height="173.04" width="374.11247999999995"><g><svg viewBox="0 0 374.11247999999995 173.04" height="173.04" width="374.11247999999995"><g><svg viewBox="0 0 374.11247999999995 173.04" height="173.04" width="374.11247999999995"><g><svg viewBox="0 0 374.11247999999995 173.04" height="173.04" width="374.11247999999995"><g><svg viewBox="0 0 374.11247999999995 173.04" height="173.04" width="374.11247999999995"><g><svg viewBox="0 0 374.11247999999995 173.04" height="173.04" width="374.11247999999995"><g transform="matrix(1,0,0,1,0,0)"><svg width="374.11247999999995" viewBox="2 -37.5 108.08999633789062 50" height="173.04" data-palette-color="#130912"><path d="M12.45 0L5.6 0Q4.1 0 3.05-1.07 2-2.15 2-3.65L2-3.65 2-7.8 6.65-7.8 6.65-6.5Q6.65-5.75 7.2-5.23 7.75-4.7 8.5-4.7L8.5-4.7 9.55-4.7Q10.3-4.7 10.83-5.23 11.35-5.75 11.35-6.5L11.35-6.5 11.35-8.35Q11.35-9.1 10.83-9.63 10.3-10.15 9.55-10.15L9.55-10.15 5.6-10.15Q4.1-10.15 3.05-11.23 2-12.3 2-13.8L2-13.8 2-21.35Q2-22.85 3.05-23.93 4.1-25 5.6-25L5.6-25 12.45-25Q13.95-25 15-23.93 16.05-22.85 16.05-21.35L16.05-21.35 16.05-17.2 11.35-17.2 11.35-18.5Q11.35-19.25 10.83-19.78 10.3-20.3 9.55-20.3L9.55-20.3 8.5-20.3Q7.75-20.3 7.2-19.78 6.65-19.25 6.65-18.5L6.65-18.5 6.65-16.65Q6.65-15.9 7.2-15.38 7.75-14.85 8.5-14.85L8.5-14.85 12.45-14.85Q13.95-14.85 15-13.78 16.05-12.7 16.05-11.2L16.05-11.2 16.05-3.45Q16-2.05 14.95-1.03 13.9 0 12.45 0L12.45 0ZM23.75 0L19.05 0 19.05-36.45 23.75-37.5 23.75-25 29.5-25Q31-25 32.05-23.93 33.1-22.85 33.1-21.35L33.1-21.35 33.1 0 28.4 0 28.4-18.5Q28.4-19.25 27.87-19.78 27.35-20.3 26.6-20.3L26.6-20.3 23.75-20.3 23.75 0ZM46.45 0L39.64 0Q38.09 0 37.05-1.07 35.99-2.15 35.99-3.65L35.99-3.65 35.99-21.35Q35.99-22.85 37.05-23.93 38.09-25 39.64-25L39.64-25 46.45-25Q47.95-25 48.99-23.93 50.05-22.85 50.05-21.35L50.05-21.35 50.05-3.65Q50.05-2.15 48.99-1.07 47.95 0 46.45 0L46.45 0ZM42.49-4.7L42.49-4.7 43.55-4.7Q44.3-4.7 44.84-5.23 45.39-5.75 45.39-6.5L45.39-6.5 45.39-18.5Q45.39-19.25 44.84-19.78 44.3-20.3 43.55-20.3L43.55-20.3 42.49-20.3Q41.74-20.3 41.22-19.78 40.7-19.25 40.7-18.5L40.7-18.5 40.7-6.5Q40.7-5.75 41.22-5.23 41.74-4.7 42.49-4.7ZM57.79 12.5L53.09 12.5 53.09-25 63.54-25Q65.09-25 66.14-23.95 67.19-22.9 67.19-21.35L67.19-21.35 67.19-3.65Q67.19-2.1 66.14-1.05 65.09 0 63.54 0L63.54 0 57.79 0 57.79 12.5ZM57.79-20.3L57.79-4.7 60.69-4.7Q61.39-4.7 61.94-5.25 62.49-5.8 62.49-6.5L62.49-6.5 62.49-18.45Q62.49-19.3 61.94-19.8 61.39-20.3 60.69-20.3L60.69-20.3 57.79-20.3ZM75.39-32.8L70.69-31.7 70.69-36.4 75.39-37.5 75.39-32.8ZM75.49 0L70.79 0 70.79-23.9 75.49-25 75.49 0ZM83.39 0L78.69 0 78.69-25 89.14-25Q90.59-25 91.69-23.95 92.79-22.9 92.79-21.4L92.79-21.4 92.79 0 88.09 0 88.09-18.5Q88.09-19.3 87.54-19.8 86.99-20.3 86.29-20.3L86.29-20.3 83.39-20.3 83.39 0ZM106.44 12.5L99.64 12.5Q98.19 12.5 97.08 11.45 95.98 10.4 95.98 8.85L95.98 8.85 95.98 3.4 100.69 4.5 100.69 6Q100.69 6.7 101.23 7.25 101.78 7.8 102.48 7.8L102.48 7.8 103.59 7.8Q104.39 7.8 104.89 7.25 105.39 6.7 105.39 6L105.39 6 105.39 0 99.64 0Q98.19 0 97.08-1.05 95.98-2.1 95.98-3.65L95.98-3.65 95.98-21.35Q95.98-22.9 97.08-23.95 98.19-25 99.64-25L99.64-25 110.09-25 110.09 8.85Q110.09 10.4 109.03 11.45 107.98 12.5 106.44 12.5L106.44 12.5ZM102.48-4.7L102.48-4.7 103.59-4.7Q104.39-4.7 104.89-5.25 105.39-5.8 105.39-6.5L105.39-6.5 105.39-20.3 102.48-20.3Q101.78-20.3 101.23-19.8 100.69-19.3 100.69-18.5L100.69-18.5 100.69-6.5Q100.69-5.8 101.23-5.25 101.78-4.7 102.48-4.7Z" opacity="1" transform="matrix(1,0,0,1,0,0)" fill="#000000" class="undefined-text-0" data-fill-palette-color="primary" id="text-0"></path></svg></g></svg></g></svg></g></svg></g></svg></g></svg></g></svg></g></svg></g></svg><rect width="395.52" height="247.2" fill="none" stroke="none" visibility="hidden"></rect></g></svg></g></svg>